# File created by Blade
# Date/Time:  Thu Jan 22 16:16:16 2015
#---------------------------------------------------------
:version 1.10
:name HOM
:units
  mass 1.0
  length 1.000000
  angle deg
:documentation
     Acclaim Skeleton File
:root
   axis xyz
   order TX TY TZ RX RY RZ
   position 0.000000 0.000000 0.000000
   orientation 0 0 0
:bonedata
   begin
      id 1
      name RightUpLeg_dum
      direction -1.000000 0.000000 0.000000
      length 3.766986
      axis 0.0 0.0 0.0 xyz
   end
   begin
      id 2
      name LeftUpLeg_dum
      direction 1.000000 0.000000 0.000000
      length 3.766986
      axis 0.0 0.0 0.0 xyz
   end
   begin
      id 3
      name Spine_dum
      direction 0.000000 1.000000 0.000000
      length 7.779697
      axis 0.0 0.0 0.0 xyz
   end
   begin
      id 4
      name RightUpLeg
      direction 0.000000 -1.000000 0.000000
      length 18.017682
      axis 0.0 0.0 0.0 xyz
      dof rx ry rz
   end
   begin
      id 5
      name RightLeg
      direction 0.000000 -1.000000 0.000000
      length 16.881075
      axis 0.0 0.0 0.0 xyz
      dof rx ry rz
   end
   begin
      id 6
      name RightFoot
      direction 0.000000 -0.258819 0.965926
      length 5.770812
      axis 15.0 0.0 0.0 xyz
      dof rx ry rz
   end
   begin
      id 7
      name RightToeBase
      direction 0.000000 0.000000 1.000000
      length 2.952750
      axis 0.0 0.0 0.0 xyz
      dof rx ry rz
   end
   begin
      id 8
      name LeftUpLeg
      direction 0.000000 -1.000000 0.000000
      length 18.017682
      axis 0.0 0.0 0.0 xyz
      dof rx ry rz
   end
   begin
      id 9
      name LeftLeg
      direction 0.000000 -1.000000 0.000000
      length 16.881075
      axis 0.0 0.0 0.0 xyz
      dof rx ry rz
   end
   begin
      id 10
      name LeftFoot
      direction 0.000000 -0.258819 0.965926
      length 5.770812
      axis 15.0 0.0 0.0 xyz
      dof rx ry rz
   end
   begin
      id 11
      name LeftToeBase
      direction 0.000000 0.000000 1.000000
      length 2.952750
      axis 0.0 0.0 0.0 xyz
      dof rx ry rz
   end
   begin
      id 12
      name Spine
      direction 0.000000 1.000000 0.000000
      length 0.000000
      axis 0.0 0.0 0.0 xyz
      dof rx ry rz
   end
   begin
      id 13
      name Spine_dum1
      direction 0.000000 1.000000 0.000000
      length 10.941760
      axis 0.0 0.0 0.0 xyz
   end
   begin
      id 14
      name Spine_dum2
      direction 0.000000 1.000000 0.000000
      length 10.941760
      axis 0.0 0.0 0.0 xyz
   end
   begin
      id 15
      name Spine_dum3
      direction 0.000000 1.000000 0.000000
      length 16.646042
      axis 0.0 0.0 0.0 xyz
   end
   begin
      id 16
      name RightShoulder
      direction -1.000000 0.000000 0.000000
      length 7.708937
      axis 0.0 0.0 90.0 xyz
      dof rx ry rz
   end
   begin
      id 17
      name RightArm
      direction -1.000000 0.000000 0.000000
      length 11.521345
      axis 0.0 0.0 90.0 xyz
      dof rx ry rz
   end
   begin
      id 18
      name RightForeArm
      direction -1.000000 0.000000 0.000000
      length 10.175898
      axis 0.0 0.0 90.0 xyz
      dof ry rz rx
   end
   begin
      id 19
      name RightHand
      direction -1.000000 0.000000 0.000000
      length 0.000000
      axis 0.0 0.0 90.0 xyz
      dof rx ry rz
   end
   begin
      id 20
      name RightHand_dum1
      direction -1.000000 0.000000 0.000000
      length 3.937000
      axis 0.0 0.0 90.0 xyz
   end
   begin
      id 21
      name RightHand_dum2
      direction 0.000000 0.000000 0.000000
      length 0.000000
      axis 0.0 0.0 90.0 xyz
   end
   begin
      id 22
      name RightHandThumb1
      direction 0.000000 0.000000 1.000000
      length 3.937000
      axis 0.0 0.0 90.0 xyz
      dof rx rz ry
   end
   begin
      id 23
      name LeftShoulder
      direction 1.000000 0.000000 0.000000
      length 7.708937
      axis 0.0 0.0 -90.0 xyz
      dof rx ry rz
   end
   begin
      id 24
      name LeftArm
      direction 1.000000 0.000000 0.000000
      length 11.521345
      axis 0.0 0.0 -90.0 xyz
      dof rx ry rz
   end
   begin
      id 25
      name LeftForeArm
      direction 1.000000 0.000000 0.000000
      length 10.175898
      axis 0.0 0.0 -90.0 xyz
      dof ry rz rx
   end
   begin
      id 26
      name LeftHand
      direction 1.000000 0.000000 0.000000
      length 0.000000
      axis 0.0 0.0 -90.0 xyz
      dof rx ry rz
   end
   begin
      id 27
      name LeftHand_dum1
      direction 1.000000 0.000000 0.000000
      length 3.937000
      axis 0.0 0.0 -90.0 xyz
   end
   begin
      id 28
      name LeftHand_dum2
      direction 0.000000 0.000000 0.000000
      length 0.000000
      axis 0.0 0.0 -90.0 xyz
   end
   begin
      id 29
      name LeftHandThumb1
      direction 0.000000 0.000000 1.000000
      length 3.937000
      axis 0.0 0.0 -90.0 xyz
      dof rx rz ry
   end
   begin
      id 30
      name Head
      direction 0.000000 1.000000 0.000000
      length 4.527550
      axis 0.0 0.0 0.0 xyz
      dof rx ry rz
   end
:hierarchy
   begin
      root RightUpLeg_dum LeftUpLeg_dum Spine_dum
      RightUpLeg_dum RightUpLeg
      LeftUpLeg_dum LeftUpLeg
      Spine_dum Spine
      RightUpLeg RightLeg
      RightLeg RightFoot
      RightFoot RightToeBase
      LeftUpLeg LeftLeg
      LeftLeg LeftFoot
      LeftFoot LeftToeBase
      Spine Spine_dum1 Spine_dum2 Spine_dum3
      Spine_dum1 RightShoulder
      Spine_dum2 LeftShoulder
      Spine_dum3 Head
      RightShoulder RightArm
      RightArm RightForeArm
      RightForeArm RightHand
      RightHand RightHand_dum1 RightHand_dum2
      RightHand_dum2 RightHandThumb1
      LeftShoulder LeftArm
      LeftArm LeftForeArm
      LeftForeArm LeftHand
      LeftHand LeftHand_dum1 LeftHand_dum2
      LeftHand_dum2 LeftHandThumb1
   end

# File created by Blade
# Date/Time:  Thu Jan 22 16:16:06 2015
# Frame Rate: 120.000 fps
#------------------------------------------------------
:FULLY-SPECIFIED
:DEGREES
172
root 3.912684 36.518400 -0.180771 2.794961 0.732209 -5.219779
RightUpLeg 2.144579 -7.677610 -18.926799
RightLeg 0.246827 -0.000000 -0.000000
RightFoot 6.148557 -24.352699 20.779873
RightToeBase -1.370186 -0.000000 0.000000
LeftUpLeg -6.516064 5.724038 19.437991
LeftLeg 10.688135 -0.000000 -0.000000
LeftFoot -9.985642 12.035896 -25.313169
LeftToeBase 9.493028 -0.000000 -0.000000
Spine 10.460468 -3.536216 -9.055771
RightShoulder -7.229899 -16.631084 -16.823219
RightArm 5.562572 23.852258 48.423767
RightForeArm 4.964230 0.000000 20.209797
RightHand 3.536668 -0.000000 -4.882707
RightHandThumb1 -24.326973 -0.000000 -32.862282
LeftShoulder -25.689697 31.201896 14.679125
LeftArm 49.505484 -51.210589 -61.516652
LeftForeArm 41.873073 -0.000000 7.394280
LeftHand -20.684127 -0.000000 0.398821
LeftHandThumb1 -26.253704 0.000000 33.147579
Head -6.189606 8.682608 9.560096
173
root 3.819374 36.475415 -0.191634 2.899916 0.689798 -5.078431
RightUpLeg 1.960229 -7.416417 -19.202149
RightLeg -0.194137 -0.000000 0.000000
RightFoot 7.590390 -23.997238 20.539156
RightToeBase -1.578342 -0.000000 0.000000
LeftUpLeg -6.779232 5.958904 19.432218
LeftLeg 11.017300 -0.000000 -0.000000
LeftFoot -10.059325 11.870155 -25.269062
LeftToeBase 9.633191 -0.000000 -0.000000
Spine 10.541408 -3.558171 -9.139928
RightShoulder -7.218818 -16.486206 -16.979356
RightArm 5.414964 23.916099 48.258170
RightForeArm 4.907068 -0.000000 20.344212
RightHand 3.496614 -0.000000 -4.858434
RightHandThumb1 -24.326973 -0.000000 -32.862282
LeftShoulder -25.722700 31.169954 14.661441
LeftArm 49.492883 -51.376911 -61.659071
LeftForeArm 41.946481 -0.000000 7.338614
LeftHand -20.672498 0.000000 0.597760
LeftHandThumb1 -26.253704 0.000000 33.147579
Head -6.584272 8.784335 9.287499
174
root 3.721920 36.430071 -0.201861 2.973042 0.620263 -4.915025
RightUpLeg 1.787484 -7.077671 -19.485428
RightLeg -0.610826 -0.000000 0.000000
RightFoot 9.140421 -23.833596 20.414230
RightToeBase -1.879840 -0.000000 0.000000
LeftUpLeg -6.981686 6.152765 19.413134
LeftLeg 11.312775 -0.000000 -0.000000
LeftFoot -10.123838 11.744252 -25.338757
LeftToeBase 9.604005 -0.000000 -0.000000
Spine 10.646123 -3.549393 -9.254215
RightShoulder -7.194607 -16.496403 -17.117855
RightArm 5.423990 23.925641 48.124077
RightForeArm 4.979155 -0.000000 20.398650
RightHand 3.454781 -0.000000 -5.003064
RightHandThumb1 -24.326973 -0.000000 -32.862282
LeftShoulder -25.776566 31.173215 14.624218
LeftArm 49.598080 -51.567123 -61.883733
LeftForeArm 41.954920 -0.000000 7.309450
LeftHand -20.943501 -0.000000 0.779986
LeftHandThumb1 -26.253704 0.000000 33.147579
Head -6.941403 8.860171 9.033322
175
root 3.619296 36.381965 -0.209961 3.043821 0.604012 -4.735233
RightUpLeg 1.657783 -6.707995 -19.741458
RightLeg -0.998896 -0.000000 0.000000
RightFoot 10.519453 -23.923580 20.576448
RightToeBase -1.785877 -0.000000 0.000000
LeftUpLeg -7.192458 6.297396 19.386067
LeftLeg 11.592475 -0.000000 -0.000000
LeftFoot -10.186472 11.606651 -25.386488
LeftToeBase 9.648329 -0.000000 -0.000000
Spine 10.756312 -3.583929 -9.357249
RightShoulder -7.194792 -16.397548 -17.281550
RightArm 5.362816 24.001305 47.999336
RightForeArm 4.950446 -0.000000 20.469648
RightHand 3.492366 -0.000000 -5.051627
RightHandThumb1 -24.326973 -0.000000 -32.862282
LeftShoulder -25.898449 31.205982 14.491723
LeftArm 49.855838 -51.729707 -62.134008
LeftForeArm 42.101804 -0.000000 7.213533
LeftHand -21.109462 -0.000000 0.837573
LeftHandThumb1 -26.253704 0.000000 33.147579
Head -7.302493 8.971817 8.757587
176
root 3.512037 36.332567 -0.214099 3.068998 0.636139 -4.549815
RightUpLeg 1.591795 -6.428825 -19.971346
RightLeg -1.334784 -0.000000 0.000000
RightFoot 11.812763 -24.155626 20.857400
RightToeBase -1.743828 -0.000000 0.000000
LeftUpLeg -7.361732 6.380651 19.365218
LeftLeg 11.841976 -0.000000 -0.000000
LeftFoot -10.255498 11.496135 -25.396754
LeftToeBase 9.754736 -0.000000 -0.000000
Spine 10.903022 -3.610699 -9.448670
RightShoulder -7.184558 -16.328113 -17.420548
RightArm 5.278864 24.086873 47.852136
RightForeArm 4.932154 0.000000 20.522918
RightHand 3.519409 0.000000 -5.146548
RightHandThumb1 -24.326973 -0.000000 -32.862282
LeftShoulder -25.806722 31.152698 14.571099
LeftArm 49.836015 -51.868805 -62.339266
LeftForeArm 42.194756 -0.000000 7.202079
LeftHand -21.272397 -0.000000 1.096283
LeftHandThumb1 -26.253704 0.000000 33.147579
Head -7.609101 8.973654 8.436118
177
root 3.398780 36.280737 -0.212130 3.065419 0.704388 -4.328154
RightUpLeg 1.593967 -6.125104 -20.182671
RightLeg -1.615745 -0.000000 0.000000
RightFoot 12.834598 -24.549395 21.195912
RightToeBase -1.447857 -0.000000 0.000000
LeftUpLeg -7.488210 6.398523 19.323653
LeftLeg 12.052330 -0.000000 -0.000000
LeftFoot -10.290441 11.378546 -25.469816
LeftToeBase 9.737400 -0.000000 -0.000000
Spine 11.064971 -3.712782 -9.577081
RightShoulder -7.128385 -16.199939 -17.596931
RightArm 5.164586 24.127415 47.718477
RightForeArm 5.000781 -0.000000 20.592427
RightHand 3.437091 0.000000 -5.251793
RightHandThumb1 -24.326973 -0.000000 -32.862282
LeftShoulder -25.868993 31.183935 14.496457
LeftArm 50.044580 -51.985944 -62.584571
LeftForeArm 42.295776 -0.000000 7.132918
LeftHand -21.411817 -0.000000 1.183126
LeftHandThumb1 -26.253704 0.000000 33.147579
Head -7.872828 9.084846 8.139784
